<?xml version="1.0" encoding="utf-8"?>
<!-- Generator: Adobe Illustrator 22.1.0, SVG Export Plug-In . SVG Version: 6.00 Build 0)  -->
<svg version="1.1" id="Layer_1" xmlns="http://www.w3.org/2000/svg" xmlns:xlink="http://www.w3.org/1999/xlink" x="0px" y="0px"
	 viewBox="0 0 153.1 153.1" style="enable-background:new 0 0 153.1 153.1;" xml:space="preserve">
<style type="text/css">
	.st0{fill:url(#SVGID_1_);}
	.st1{fill:url(#SVGID_2_);}
</style>
<g>
	<linearGradient id="SVGID_1_" gradientUnits="userSpaceOnUse" x1="31.1294" y1="-6.5147" x2="119.6294" y2="162.9853">
		<stop  offset="0" style="stop-color:#515BD4"/>
		<stop  offset="0.25" style="stop-color:#8134AF"/>
		<stop  offset="0.5" style="stop-color:#DD2A7B"/>
		<stop  offset="0.75" style="stop-color:#F58529"/>
		<stop  offset="1" style="stop-color:#FEDA77"/>
	</linearGradient>
	<path class="st0" d="M79,78.4c-11.8,0.7-15.7,6.4-15.4,11.5c0.4,6.9,7.8,10.1,15,9.7c7-0.4,15-3.1,16.4-20.1
		c-3.6-0.8-7.7-1.2-11.9-1.2C81.6,78.3,80.3,78.3,79,78.4z"/>
	<linearGradient id="SVGID_2_" gradientUnits="userSpaceOnUse" x1="32.7459" y1="-7.3587" x2="121.2459" y2="162.1413">
		<stop  offset="0" style="stop-color:#515BD4"/>
		<stop  offset="0.25" style="stop-color:#8134AF"/>
		<stop  offset="0.5" style="stop-color:#DD2A7B"/>
		<stop  offset="0.75" style="stop-color:#F58529"/>
		<stop  offset="1" style="stop-color:#FEDA77"/>
	</linearGradient>
	<path class="st1" d="M117.9,0H35.2C15.8,0,0,15.8,0,35.2v82.8c0,19.4,15.8,35.2,35.2,35.2h82.8c19.4,0,35.2-15.8,35.2-35.2V35.2
		C153.1,15.8,137.4,0,117.9,0z M42.3,116c7.7,9.8,19.6,14.8,35.3,14.9c14.1-0.1,23.5-3.5,31.3-11.2c8.9-8.9,8.7-19.8,5.9-26.4
		c-1.7-3.9-4.7-7.1-8.8-9.6c-1,7.4-3.2,13.3-6.8,17.8c-4.7,6-11.4,9.2-20,9.7c-6.5,0.4-12.7-1.2-17.6-4.4c-5.7-3.8-9.1-9.6-9.4-16.3
		c-0.7-13.3,9.8-22.8,26.2-23.8c5.8-0.3,11.3-0.1,16.3,0.8c-0.7-4.1-2-7.3-4-9.7c-2.8-3.2-7-4.9-12.7-4.9c-0.1,0-0.1,0-0.2,0
		C73.1,53,67,54.2,63,60.2l-9.5-6.5c5.3-8,13.8-12.4,24.1-12.4c0.1,0,0.2,0,0.2,0c17.2,0.1,27.5,10.9,28.5,29.6
		c0.6,0.3,1.2,0.5,1.7,0.8c8,3.9,13.9,9.7,17,16.9c4.3,10,4.7,26.3-8.3,39.4c-10,10-22.1,14.4-39.2,14.6h-0.1
		c-19.3-0.1-34.1-6.6-44.1-19.3c-8.9-11.3-13.5-27-13.6-46.6l0,0l0,0c0.2-19.7,4.7-35.4,13.6-46.6c10-12.7,24.8-19.2,44.1-19.3h0.1
		c19.3,0.1,34.4,6.6,44.6,19.2c5.1,6.2,8.8,13.7,11.2,22.5l-11.1,3c-2-7.1-4.9-13.2-8.8-18c-8-9.8-20.1-14.9-35.9-15
		C61.9,22.3,50,27.4,42.3,37.2c-7.2,9.2-11,22.4-11.1,39.4C31.3,93.5,35.1,106.8,42.3,116z"/>
</g>
</svg>
